0
SECTION
2
HEADER
9
$INSUNITS
70
4
9
$ACADVER
1
AC1014
9
$HANDSEED
5
FFFF
0
ENDSEC
0
SECTION
2
TABLES
0
TABLE
2
VPORT
5
8
100
AcDbSymbolTable
0
ENDTAB
0
TABLE
2
LTYPE
5
5
100
AcDbSymbolTable
0
LTYPE
5
14
100
AcDbSymbolTableRecord
100
AcDbLinetypeTableRecord
2
BYBLOCK
70
0
0
LTYPE
5
15
100
AcDbSymbolTableRecord
100
AcDbLinetypeTableRecord
2
BYLAYER
70
0
0
ENDTAB
0
TABLE
2
LAYER
5
2
100
AcDbSymbolTable
70
2
0
LAYER
5
50
100
AcDbSymbolTableRecord
100
AcDbLayerTableRecord
2
0
70
0
6
CONTINUOUS
0
ENDTAB
0
TABLE
2
STYLE
5
3
100
AcDbSymbolTable
70
1
0
STYLE
5
11
100
AcDbSymbolTableRecord
100
AcDbTextStyleTableRecord
2
STANDARD
70
0
0
ENDTAB
0
TABLE
2
VIEW
5
6
100
AcDbSymbolTable
70
0
0
ENDTAB
0
TABLE
2
UCS
5
7
100
AcDbSymbolTable
70
0
0
ENDTAB
0
TABLE
2
APPID
5
9
100
AcDbSymbolTable
70
2
0
APPID
5
12
100
AcDbSymbolTableRecord
100
AcDbRegAppTableRecord
2
ACAD
70
0
0
ENDTAB
0
TABLE
2
DIMSTYLE
5
A
100
AcDbSymbolTable
70
1
0
ENDTAB
0
TABLE
2
BLOCK_RECORD
5
1
100
AcDbSymbolTable
70
1
0
BLOCK_RECORD
5
1F
100
AcDbSymbolTableRecord
100
AcDbBlockTableRecord
2
*MODEL_SPACE
0
BLOCK_RECORD
5
1B
100
AcDbSymbolTableRecord
100
AcDbBlockTableRecord
2
*PAPER_SPACE
0
ENDTAB
0
ENDSEC
0
SECTION
2
BLOCKS
0
BLOCK
5
20
100
AcDbEntity
100
AcDbBlockBegin
2
*MODEL_SPACE
0
ENDBLK
5
21
100
AcDbEntity
100
AcDbBlockEnd
0
BLOCK
5
1C
100
AcDbEntity
100
AcDbBlockBegin
2
*PAPER_SPACE
0
ENDBLK
5
1D
100
AcDbEntity
100
AcDbBlockEnd
0
ENDSEC
0
SECTION
2
ENTITIES
0
LINE
5
100
100
AcDbEntity
8
0
100
AcDbLine
10
66.700000000000003
20
15.000000447034836
30
0
11
66.700000000000003
21
19.900000447034834
31
0
0
LINE
5
101
100
AcDbEntity
8
0
100
AcDbLine
10
66.700000000000003
20
25.000000447034836
30
0
11
66.700000000000003
21
30.000000447034836
31
0
0
LINE
5
102
100
AcDbEntity
8
0
100
AcDbLine
10
-2.9999999999999982
20
30.000000447034836
30
0
11
-3.0000000000000004
21
25.000000447034836
31
0
0
LINE
5
103
100
AcDbEntity
8
0
100
AcDbLine
10
-3.0000000000000004
20
19.900000447034834
30
0
11
-3.0000000000000004
21
15.000000447034836
31
0
0
LINE
5
104
100
AcDbEntity
8
0
100
AcDbLine
10
11.850000000000005
20
20.000000447034836
30
0
11
21.850000000000005
21
20.000000447034836
31
0
0
LINE
5
105
100
AcDbEntity
8
0
100
AcDbLine
10
41.850000000000009
20
20.000000447034836
30
0
11
51.850000000000009
21
20.000000447034836
31
0
0
LINE
5
106
100
AcDbEntity
8
0
100
AcDbLine
10
-2.9999999999999982
20
30.100000447034798
30
0
11
-3.0000000000000004
21
24.900000447034834
31
0
0
LINE
5
107
100
AcDbEntity
8
0
100
AcDbLine
10
-0.09999999999999995
20
24.800000447034837
30
0
11
-0.09999999999999995
21
20.100000447034834
31
0
0
LINE
5
108
100
AcDbEntity
8
0
100
AcDbLine
10
-3.0000000000000004
20
19.900000447034834
30
0
11
-3.0000000000000004
21
15.000000447034836
31
0
0
LINE
5
109
100
AcDbEntity
8
0
100
AcDbLine
10
-0.09999999999999995
20
14.800000447034837
30
0
11
-0.099999999999999201
21
11.936074066301568
31
0
0
LINE
5
110
100
AcDbEntity
8
0
100
AcDbLine
10
63.800000000000011
20
11.936074066301568
30
0
11
63.800000000000011
21
14.800000447034837
31
0
0
LINE
5
111
100
AcDbEntity
8
0
100
AcDbLine
10
66.700000000000003
20
15.000000447034836
30
0
11
66.700000000000003
21
19.900000447034834
31
0
0
LINE
5
112
100
AcDbEntity
8
0
100
AcDbLine
10
63.799999999999969
20
20.100000447034834
30
0
11
63.799999999999969
21
24.800000447034837
31
0
0
LINE
5
113
100
AcDbEntity
8
0
100
AcDbLine
10
66.700000000000003
20
25.000000447034836
30
0
11
66.700000000000003
21
30.100000447034798
31
0
0
LINE
5
114
100
AcDbEntity
8
0
100
AcDbLine
10
66.700000000000003
20
30.100000447034798
30
0
11
-2.9999999999999982
21
30.100000447034798
31
0
0
LINE
5
115
100
AcDbEntity
8
0
100
AcDbLine
10
11.850000000000005
20
20.000000447034836
30
0
11
11.850000000000005
21
18.500000447034836
31
0
0
LINE
5
116
100
AcDbEntity
8
0
100
AcDbLine
10
21.850000000000005
20
18.500000447034836
30
0
11
21.850000000000005
21
20.000000447034836
31
0
0
LINE
5
117
100
AcDbEntity
8
0
100
AcDbLine
10
41.850000000000009
20
20.000000447034836
30
0
11
41.850000000000009
21
18.500000447034836
31
0
0
LINE
5
118
100
AcDbEntity
8
0
100
AcDbLine
10
51.850000000000009
20
18.500000447034836
30
0
11
51.850000000000009
21
20.000000447034836
31
0
0
LINE
5
119
100
AcDbEntity
8
0
100
AcDbLine
10
41.850000000000009
20
20.000000447034836
30
0
11
51.850000000000009
21
20.000000447034836
31
0
0
LINE
5
120
100
AcDbEntity
8
0
100
AcDbLine
10
11.850000000000005
20
20.000000447034836
30
0
11
21.850000000000005
21
20.000000447034836
31
0
0
LINE
5
121
100
AcDbEntity
8
0
100
AcDbLine
10
-0.099999999999999201
20
11.936074066301568
30
0
11
63.800000000000011
21
11.936074066301568
31
0
0
LINE
5
122
100
AcDbEntity
8
0
100
AcDbLine
10
11.850000000000005
20
18.500000447034836
30
0
11
21.850000000000005
21
18.500000447034836
31
0
0
LINE
5
123
100
AcDbEntity
8
0
100
AcDbLine
10
41.850000000000009
20
18.500000447034836
30
0
11
51.850000000000009
21
18.500000447034836
31
0
0
LINE
5
124
100
AcDbEntity
8
0
100
AcDbLine
10
-3.0000000000000004
20
19.900000447034834
30
0
11
-3.0000000000000004
21
20.100000447034834
31
0
0
LINE
5
125
100
AcDbEntity
8
0
100
AcDbLine
10
-3.0000000000000004
20
20.100000447034834
30
0
11
-0.09999999999999995
21
20.100000447034834
31
0
0
LINE
5
126
100
AcDbEntity
8
0
100
AcDbLine
10
-3.0000000000000004
20
15.000000447034836
30
0
11
-3.0000000000000004
21
14.800000447034837
31
0
0
LINE
5
127
100
AcDbEntity
8
0
100
AcDbLine
10
-3.0000000000000004
20
14.800000447034837
30
0
11
-0.09999999999999995
21
14.800000447034837
31
0
0
LINE
5
128
100
AcDbEntity
8
0
100
AcDbLine
10
66.700000000000003
20
25.000000447034836
30
0
11
66.700000000000003
21
24.900000447034838
31
0
0
LINE
5
129
100
AcDbEntity
8
0
100
AcDbLine
10
66.700000000000003
20
19.900000447034834
30
0
11
66.700000000000003
21
20.100000447034834
31
0
0
LINE
5
130
100
AcDbEntity
8
0
100
AcDbLine
10
66.700000000000003
20
20.100000447034834
30
0
11
63.799999999999969
21
20.100000447034834
31
0
0
LINE
5
131
100
AcDbEntity
8
0
100
AcDbLine
10
66.700000000000003
20
15.000000447034836
30
0
11
66.700000000000003
21
14.800000447034837
31
0
0
LINE
5
132
100
AcDbEntity
8
0
100
AcDbLine
10
66.700000000000003
20
14.800000447034837
30
0
11
63.800000000000011
21
14.800000447034837
31
0
0
LINE
5
133
100
AcDbEntity
8
0
100
AcDbLine
10
-0.09999999999999995
20
24.800000447034837
30
0
11
-0.09999999999999995
21
24.900000447034834
31
0
0
LINE
5
134
100
AcDbEntity
8
0
100
AcDbLine
10
-0.09999999999999995
20
24.900000447034834
30
0
11
-3.0000000000000004
21
24.900000447034834
31
0
0
LINE
5
135
100
AcDbEntity
8
0
100
AcDbLine
10
63.799999999999969
20
24.800000447034837
30
0
11
63.799999999999969
21
24.900000447034834
31
0
0
LINE
5
136
100
AcDbEntity
8
0
100
AcDbLine
10
63.799999999999969
20
24.900000447034834
30
0
11
66.700000000000003
21
24.900000447034838
31
0
0
ENDSEC
0
SECTION
2
OBJECTS
0
DICTIONARY
5
C
100
AcDbDictionary
3
ACAD_GROUP
350
D
3
ACAD_MLINESTYLE
350
17
0
DICTIONARY
5
D
100
AcDbDictionary
0
DICTIONARY
5
1A
330
C
100
AcDbDictionary
0
DICTIONARY
5
17
100
AcDbDictionary
0
ENDSEC
0
EOF
