0
SECTION
2
HEADER
9
$INSUNITS
70
4
9
$ACADVER
1
AC1014
9
$HANDSEED
5
FFFF
0
ENDSEC
0
SECTION
2
TABLES
0
TABLE
2
VPORT
5
8
100
AcDbSymbolTable
0
ENDTAB
0
TABLE
2
LTYPE
5
5
100
AcDbSymbolTable
0
LTYPE
5
14
100
AcDbSymbolTableRecord
100
AcDbLinetypeTableRecord
2
BYBLOCK
70
0
0
LTYPE
5
15
100
AcDbSymbolTableRecord
100
AcDbLinetypeTableRecord
2
BYLAYER
70
0
0
ENDTAB
0
TABLE
2
LAYER
5
2
100
AcDbSymbolTable
70
2
0
LAYER
5
50
100
AcDbSymbolTableRecord
100
AcDbLayerTableRecord
2
0
70
0
6
CONTINUOUS
0
ENDTAB
0
TABLE
2
STYLE
5
3
100
AcDbSymbolTable
70
1
0
STYLE
5
11
100
AcDbSymbolTableRecord
100
AcDbTextStyleTableRecord
2
STANDARD
70
0
0
ENDTAB
0
TABLE
2
VIEW
5
6
100
AcDbSymbolTable
70
0
0
ENDTAB
0
TABLE
2
UCS
5
7
100
AcDbSymbolTable
70
0
0
ENDTAB
0
TABLE
2
APPID
5
9
100
AcDbSymbolTable
70
2
0
APPID
5
12
100
AcDbSymbolTableRecord
100
AcDbRegAppTableRecord
2
ACAD
70
0
0
ENDTAB
0
TABLE
2
DIMSTYLE
5
A
100
AcDbSymbolTable
70
1
0
ENDTAB
0
TABLE
2
BLOCK_RECORD
5
1
100
AcDbSymbolTable
70
1
0
BLOCK_RECORD
5
1F
100
AcDbSymbolTableRecord
100
AcDbBlockTableRecord
2
*MODEL_SPACE
0
BLOCK_RECORD
5
1B
100
AcDbSymbolTableRecord
100
AcDbBlockTableRecord
2
*PAPER_SPACE
0
ENDTAB
0
ENDSEC
0
SECTION
2
BLOCKS
0
BLOCK
5
20
100
AcDbEntity
100
AcDbBlockBegin
2
*MODEL_SPACE
0
ENDBLK
5
21
100
AcDbEntity
100
AcDbBlockEnd
0
BLOCK
5
1C
100
AcDbEntity
100
AcDbBlockBegin
2
*PAPER_SPACE
0
ENDBLK
5
1D
100
AcDbEntity
100
AcDbBlockEnd
0
ENDSEC
0
SECTION
2
ENTITIES
0
LINE
5
100
100
AcDbEntity
8
0
100
AcDbLine
10
15
20
20
30
0
11
25
21
20
31
0
0
LINE
5
101
100
AcDbEntity
8
0
100
AcDbLine
10
25
20
18.5
30
0
11
15
21
18.5
31
0
0
LINE
5
102
100
AcDbEntity
8
0
100
AcDbLine
10
15
20
18.5
30
0
11
15
21
20
31
0
0
LINE
5
103
100
AcDbEntity
8
0
100
AcDbLine
10
48.25
20
20
30
0
11
48.25
21
18.500000000000007
31
0
0
LINE
5
104
100
AcDbEntity
8
0
100
AcDbLine
10
48.25
20
18.500000000000007
30
0
11
58.25
21
18.500000000000007
31
0
0
LINE
5
105
100
AcDbEntity
8
0
100
AcDbLine
10
58.25
20
18.500000000000007
30
0
11
58.25
21
20
31
0
0
LINE
5
106
100
AcDbEntity
8
0
100
AcDbLine
10
58.25
20
20
30
0
11
48.25
21
20
31
0
0
LINE
5
107
100
AcDbEntity
8
0
100
AcDbLine
10
81.5
20
20
30
0
11
81.5
21
18.50000000000005
31
0
0
LINE
5
108
100
AcDbEntity
8
0
100
AcDbLine
10
81.5
20
18.50000000000005
30
0
11
91.5
21
18.50000000000005
31
0
0
LINE
5
109
100
AcDbEntity
8
0
100
AcDbLine
10
91.5
20
20
30
0
11
81.5
21
20
31
0
0
LWPOLYLINE
5
110
100
AcDbEntity
8
0
100
AcDbPolyline
90
15
70
1
43
0.0
10
103.5
20
30.200000447034654
10
10.000000154855204
20
30.200000447034654
10
9.9999999999999982
20
24.900000000000016
10
10
20
11.064263413835471
10
24.261000829531039
20
11.064263413835471
10
92.429651625723494
20
11.064263413835466
42
0.93077730541553128
10
106.35785485599899
20
12.064263413835468
10
106.35785485599899
20
14.900000000000002
10
106.35785485599899
20
15.100000000000001
10
103.5
20
15.100000000000001
10
103.5
20
19.800000000000001
10
106.49999997019768
20
19.800000000000001
10
106.5
20
20
10
106.5
20
25.100000000000001
10
103.5
20
25.100000000000001
0
LWPOLYLINE
5
111
100
AcDbEntity
8
0
100
AcDbPolyline
90
4
70
1
43
0.0
10
19.94762099562038
20
16.057000059604647
10
19.94762099562038
20
12.857000059604646
10
25.147620995620379
20
12.857000059604646
10
25.147620995620379
20
16.057000059604647
0
LWPOLYLINE
5
112
100
AcDbEntity
8
0
100
AcDbPolyline
90
4
70
1
43
0.0
10
35.147620995620379
20
16.057000059604647
10
29.947620995620383
20
16.057000059604647
10
29.947620995620383
20
12.857000059604646
10
35.147620995620379
20
12.857000059604646
0
LWPOLYLINE
5
113
100
AcDbEntity
8
0
100
AcDbPolyline
90
4
70
1
43
0.0
10
45.147620995620379
20
16.057000059604647
10
39.947620995620383
20
16.057000059604647
10
39.947620995620383
20
12.857000059604646
10
45.147620995620379
20
12.857000059604646
0
LINE
5
114
100
AcDbEntity
8
0
100
AcDbLine
10
25
20
20
30
0
11
25
21
18.5
31
0
0
LINE
5
115
100
AcDbEntity
8
0
100
AcDbLine
10
91.5
20
20
30
0
11
91.5
21
18.50000000000005
31
0
0
ENDSEC
0
SECTION
2
OBJECTS
0
DICTIONARY
5
C
100
AcDbDictionary
3
ACAD_GROUP
350
D
3
ACAD_MLINESTYLE
350
17
0
DICTIONARY
5
D
100
AcDbDictionary
0
DICTIONARY
5
1A
330
C
100
AcDbDictionary
0
DICTIONARY
5
17
100
AcDbDictionary
0
ENDSEC
0
EOF
