  0
SECTION
  2
HEADER
  9
$ACADVER
  1
AC1014
  9
$ACADMAINTVER
 70
     9
  9
$DWGCODEPAGE
  3
UNDEFINED
  9
$INSBASE
 10
0.0
 20
0.0
 30
0.0
  9
$EXTMIN
 10
1.000000000000000E+20
 20
1.000000000000000E+20
 30
1.000000000000000E+20
  9
$EXTMAX
 10
-1.000000000000000E+20
 20
-1.000000000000000E+20
 30
-1.000000000000000E+20
  9
$LIMMIN
 10
0.0
 20
0.0
  9
$LIMMAX
 10
12.0
 20
9.0
  9
$ORTHOMODE
 70
     0
  9
$REGENMODE
 70
     1
  9
$FILLMODE
 70
     1
  9
$QTEXTMODE
 70
     0
  9
$MIRRTEXT
 70
     1
  9
$DRAGMODE
 70
     2
  9
$LTSCALE
 40
1.0
  9
$OSMODE
 70
    37
  9
$ATTMODE
 70
     1
  9
$TEXTSIZE
 40
0.2
  9
$TRACEWID
 40
0.05
  9
$TEXTSTYLE
  7
STANDARD
  9
$CLAYER
  8
0
  9
$CELTYPE
  6
BYLAYER
  9
$CECOLOR
 62
   256
  9
$CELTSCALE
 40
1.0
  9
$DELOBJ
 70
     1
  9
$DISPSILH
 70
     0
  9
$DIMSCALE
 40
1.0
  9
$DIMASZ
 40
0.18
  9
$DIMEXO
 40
0.0625
  9
$DIMDLI
 40
0.38
  9
$DIMRND
 40
0.0
  9
$DIMDLE
 40
0.0
  9
$DIMEXE
 40
0.18
  9
$DIMTP
 40
0.0
  9
$DIMTM
 40
0.0
  9
$DIMTXT
 40
0.18
  9
$DIMCEN
 40
0.09
  9
$DIMTSZ
 40
0.0
  9
$DIMTOL
 70
     0
  9
$DIMLIM
 70
     0
  9
$DIMTIH
 70
     1
  9
$DIMTOH
 70
     1
  9
$DIMSE1
 70
     0
  9
$DIMSE2
 70
     0
  9
$DIMTAD
 70
     0
  9
$DIMZIN
 70
     0
  9
$DIMBLK
  1

  9
$DIMASO
 70
     1
  9
$DIMSHO
 70
     1
  9
$DIMPOST
  1

  9
$DIMAPOST
  1

  9
$DIMALT
 70
     0
  9
$DIMALTD
 70
     2
  9
$DIMALTF
 40
25.4
  9
$DIMLFAC
 40
1.0
  9
$DIMTOFL
 70
     0
  9
$DIMTVP
 40
0.0
  9
$DIMTIX
 70
     0
  9
$DIMSOXD
 70
     0
  9
$DIMSAH
 70
     0
  9
$DIMBLK1
  1

  9
$DIMBLK2
  1

  9
$DIMSTYLE
  2
STANDARD
  9
$DIMCLRD
 70
     0
  9
$DIMCLRE
 70
     0
  9
$DIMCLRT
 70
     0
  9
$DIMTFAC
 40
1.0
  9
$DIMGAP
 40
0.09
  9
$DIMJUST
 70
     0
  9
$DIMSD1
 70
     0
  9
$DIMSD2
 70
     0
  9
$DIMTOLJ
 70
     1
  9
$DIMTZIN
 70
     0
  9
$DIMALTZ
 70
     0
  9
$DIMALTTZ
 70
     0
  9
$DIMFIT
 70
     3
  9
$DIMUPT
 70
     0
  9
$DIMUNIT
 70
     2
  9
$DIMDEC
 70
     4
  9
$DIMTDEC
 70
     4
  9
$DIMALTU
 70
     2
  9
$DIMALTTD
 70
     2
  9
$DIMTXSTY
  7
STANDARD
  9
$DIMAUNIT
 70
     0
  9
$LUNITS
 70
     2
  9
$LUPREC
 70
     4
  9
$SKETCHINC
 40
0.1
  9
$FILLETRAD
 40
0.5
  9
$AUNITS
 70
     0
  9
$AUPREC
 70
     0
  9
$MENU
  1
.
  9
$ELEVATION
 40
0.0
  9
$PELEVATION
 40
0.0
  9
$THICKNESS
 40
0.0
  9
$LIMCHECK
 70
     0
  9
$CHAMFERA
 40
0.5
  9
$CHAMFERB
 40
0.5
  9
$CHAMFERC
 40
1.0
  9
$CHAMFERD
 40
0.0
  9
$SKPOLY
 70
     0
  9
$TDCREATE
 40
2458590.759814803
  9
$TDUPDATE
 40
2458590.759814803
  9
$TDINDWG
 40
0.0000000116
  9
$TDUSRTIMER
 40
0.0000000116
  9
$USRTIMER
 70
     1
  9
$ANGBASE
 50
0.0
  9
$ANGDIR
 70
     0
  9
$PDMODE
 70
     0
  9
$PDSIZE
 40
0.0
  9
$PLINEWID
 40
0.0
  9
$COORDS
 70
     1
  9
$SPLFRAME
 70
     0
  9
$SPLINETYPE
 70
     6
  9
$SPLINESEGS
 70
     8
  9
$ATTDIA
 70
     0
  9
$ATTREQ
 70
     1
  9
$HANDLING
 70
     1
  9
$HANDSEED
  5
8C
  9
$SURFTAB1
 70
     6
  9
$SURFTAB2
 70
     6
  9
$SURFTYPE
 70
     6
  9
$SURFU
 70
     6
  9
$SURFV
 70
     6
  9
$UCSNAME
  2

  9
$UCSORG
 10
0.0
 20
0.0
 30
0.0
  9
$UCSXDIR
 10
1.0
 20
0.0
 30
0.0
  9
$UCSYDIR
 10
0.0
 20
1.0
 30
0.0
  9
$PUCSNAME
  2

  9
$PUCSORG
 10
0.0
 20
0.0
 30
0.0
  9
$PUCSXDIR
 10
1.0
 20
0.0
 30
0.0
  9
$PUCSYDIR
 10
0.0
 20
1.0
 30
0.0
  9
$USERI1
 70
     0
  9
$USERI2
 70
     0
  9
$USERI3
 70
     0
  9
$USERI4
 70
     0
  9
$USERI5
 70
     0
  9
$USERR1
 40
0.0
  9
$USERR2
 40
0.0
  9
$USERR3
 40
0.0
  9
$USERR4
 40
0.0
  9
$USERR5
 40
0.0
  9
$WORLDVIEW
 70
     1
  9
$SHADEDGE
 70
     3
  9
$SHADEDIF
 70
    70
  9
$TILEMODE
 70
     1
  9
$MAXACTVP
 70
    64
  9
$PINSBASE
 10
0.0
 20
0.0
 30
0.0
  9
$PLIMCHECK
 70
     0
  9
$PEXTMIN
 10
1.000000000000000E+20
 20
1.000000000000000E+20
 30
1.000000000000000E+20
  9
$PEXTMAX
 10
-1.000000000000000E+20
 20
-1.000000000000000E+20
 30
-1.000000000000000E+20
  9
$PLIMMIN
 10
0.0
 20
0.0
  9
$PLIMMAX
 10
12.0
 20
9.0
  9
$UNITMODE
 70
     0
  9
$VISRETAIN
 70
     1
  9
$PLINEGEN
 70
     0
  9
$PSLTSCALE
 70
     1
  9
$TREEDEPTH
 70
  3020
  9
$PICKSTYLE
 70
     1
  9
$CMLSTYLE
  2
STANDARD
  9
$CMLJUST
 70
     0
  9
$CMLSCALE
 40
1.0
  9
$PROXYGRAPHICS
 70
     1
  9
$MEASUREMENT
 70
     0
  0
ENDSEC
  0
SECTION
  2
CLASSES
  0
CLASS
  1
ACDBDICTIONARYWDFLT
  2
AcDbDictionaryWithDefault
  3
ObjectDBX Classes
 90
        0
280
     0
281
     0
  0
CLASS
  1
VISUALSTYLE
  2
AcDbVisualStyle
  3
ObjectDBX Classes
 90
     4095
280
     0
281
     0
  0
CLASS
  1
MATERIAL
  2
AcDbMaterial
  3
ObjectDBX Classes
 90
     1153
280
     0
281
     0
  0
CLASS
  1
SUN
  2
AcDbSun
  3
SCENEOE
 90
     1024
280
     0
281
     0
  0
CLASS
  1
DICTIONARYVAR
  2
AcDbDictionaryVar
  3
ObjectDBX Classes
 90
        0
280
     0
281
     0
  0
CLASS
  1
XRECORD
  2
AcDbXrecord
  3
AutoCAD 2000
 90
        0
280
     0
281
     0
  0
CLASS
  1
LWPOLYLINE
  2
AcDbPolyline
  3
AutoCAD 2000
 90
        0
280
     0
281
     1
  0
CLASS
  1
HATCH
  2
AcDbHatch
  3
AutoCAD 2000
 90
        0
280
     0
281
     1
  0
CLASS
  1
ACDBPLACEHOLDER
  2
AcDbPlaceHolder
  3
ObjectDBX Classes
 90
        0
280
     0
281
     0
  0
CLASS
  1
LAYOUT
  2
AcDbLayout
  3
ObjectDBX Classes
 90
        0
280
     0
281
     0
  0
ENDSEC
  0
SECTION
  2
TABLES
  0
TABLE
  2
VPORT
  5
8
330
0
100
AcDbSymbolTable
 70
     1
  0
VPORT
  5
29
330
8
100
AcDbSymbolTableRecord
100
AcDbViewportTableRecord
  2
*ACTIVE
 70
     0
 10
0.0
 20
0.0
 11
1.0
 21
1.0
 12
0.0
 22
0.0
 13
0.0
 23
0.0
 14
0.5
 24
0.5
 15
0.5
 25
0.5
 16
0.0
 26
0.0
 36
1.0
 17
73.30996844158301
 27
-139.699999965075
 37
0.0
 40
279.39999993015
 41
1.020687412599066
 42
50.0
 43
0.0
 44
0.0
 50
0.0
 51
0.0
 71
     0
 72
   100
 73
     1
 74
     3
 75
     0
 76
     0
 77
     0
 78
     0
  0
ENDTAB
  0
TABLE
  2
LTYPE
  5
5
330
0
100
AcDbSymbolTable
 70
     1
  0
LTYPE
  5
14
330
5
100
AcDbSymbolTableRecord
100
AcDbLinetypeTableRecord
  2
BYBLOCK
 70
     0
  3

 72
    65
 73
     0
 40
0.0
  0
LTYPE
  5
15
330
5
100
AcDbSymbolTableRecord
100
AcDbLinetypeTableRecord
  2
BYLAYER
 70
     0
  3

 72
    65
 73
     0
 40
0.0
  0
LTYPE
  5
16
330
5
100
AcDbSymbolTableRecord
100
AcDbLinetypeTableRecord
  2
CONTINUOUS
 70
     0
  3
Solid line
 72
    65
 73
     0
 40
0.0
  0
ENDTAB
  0
TABLE
  2
LAYER
  5
2
330
0
100
AcDbSymbolTable
 70
     3
  0
LAYER
  5
10
330
2
100
AcDbSymbolTableRecord
100
AcDbLayerTableRecord
  2
0
 70
     0
 62
     7
  6
CONTINUOUS
  0
LAYER
  5
40
330
2
100
AcDbSymbolTableRecord
100
AcDbLayerTableRecord
  2
LAYER_1
 70
     0
 62
     7
  6
CONTINUOUS
  0
LAYER
  5
60
330
2
100
AcDbSymbolTableRecord
100
AcDbLayerTableRecord
  2
LAYER_2
 70
     0
 62
     7
  6
CONTINUOUS
  0
ENDTAB
  0
TABLE
  2
STYLE
  5
3
330
0
100
AcDbSymbolTable
 70
     1
  0
STYLE
  5
11
330
3
100
AcDbSymbolTableRecord
100
AcDbTextStyleTableRecord
  2
STANDARD
 70
     0
 40
0.0
 41
1.0
 50
0.0
 71
     0
 42
0.2
  3
txt
  4

  0
ENDTAB
  0
TABLE
  2
VIEW
  5
6
330
0
100
AcDbSymbolTable
 70
     0
  0
ENDTAB
  0
TABLE
  2
UCS
  5
7
330
0
100
AcDbSymbolTable
 70
     0
  0
ENDTAB
  0
TABLE
  2
APPID
  5
9
330
0
100
AcDbSymbolTable
 70
     1
  0
APPID
  5
12
330
9
100
AcDbSymbolTableRecord
100
AcDbRegAppTableRecord
  2
ACAD
 70
     0
  0
ENDTAB
  0
TABLE
  2
DIMSTYLE
  5
A
330
0
100
AcDbSymbolTable
 70
     1
  0
DIMSTYLE
105
27
330
A
100
AcDbSymbolTableRecord
100
AcDbDimStyleTableRecord
  2
STANDARD
 70
     0
  3

  4

  5

  6

  7

 40
1.0
 41
0.18
 42
0.0625
 43
0.38
 44
0.18
 45
0.0
 46
0.0
 47
0.0
 48
0.0
140
0.18
141
0.09
142
0.0
143
25.4
144
1.0
145
0.0
146
1.0
147
0.09
 71
     0
 72
     0
 73
     1
 74
     1
 75
     0
 76
     0
 77
     0
 78
     0
170
     0
171
     2
172
     0
173
     0
174
     0
175
     0
176
     0
177
     0
178
     0
270
     2
271
     4
272
     4
273
     2
274
     2
340
11
275
     0
280
     0
281
     0
282
     0
283
     1
284
     0
285
     0
286
     0
287
     3
288
     0
  0
ENDTAB
  0
TABLE
  2
BLOCK_RECORD
  5
1
330
0
100
AcDbSymbolTable
 70
     1
  0
BLOCK_RECORD
  5
1F
330
1
100
AcDbSymbolTableRecord
100
AcDbBlockTableRecord
  2
*MODEL_SPACE
  0
BLOCK_RECORD
  5
1B
330
1
100
AcDbSymbolTableRecord
100
AcDbBlockTableRecord
  2
*PAPER_SPACE
  0
ENDTAB
  0
ENDSEC
  0
SECTION
  2
BLOCKS
  0
BLOCK
  5
20
330
1F
100
AcDbEntity
  8
0
100
AcDbBlockBegin
  2
*MODEL_SPACE
 70
     0
 10
0.0
 20
0.0
 30
0.0
  3
*MODEL_SPACE
  1

  0
ENDBLK
  5
21
330
1F
100
AcDbEntity
  8
0
100
AcDbBlockEnd
  0
BLOCK
  5
1C
330
1B
100
AcDbEntity
 67
     1
  8
0
100
AcDbBlockBegin
  2
*PAPER_SPACE
 70
     0
 10
0.0
 20
0.0
 30
0.0
  3
*PAPER_SPACE
  1

  0
ENDBLK
  5
1D
330
1B
100
AcDbEntity
 67
     1
  8
0
100
AcDbBlockEnd
  0
ENDSEC
  0
SECTION
  2
ENTITIES
  0
SPLINE
  5
41
330
1F
100
AcDbEntity
  8
LAYER_1
 62
     6
100
AcDbSpline
210
0.0
220
0.0
230
1.0
 70
    11
 71
     3
 72
    17
 73
    13
 74
     0
 42
0.0000000001
 43
0.0000000001
 12
1.0
 22
0.0
 32
0.0
 13
1.0
 23
0.0
 33
0.0
 40
0.0
 40
0.0
 40
0.0
 40
0.0
 40
1.0
 40
1.0
 40
1.0
 40
2.0
 40
2.0
 40
2.0
 40
3.0
 40
3.0
 40
3.0
 40
4.0
 40
4.0
 40
4.0
 40
4.0
 10
70.29999998242474
 20
-60.80021143851502
 30
0.0
 10
70.29999998242474
 20
-58.75675786476582
 30
0.0
 10
71.95654640775066
 20
-57.1002114394399
 30
0.0
 10
73.99999998149987
 20
-57.1002114394399
 30
0.0
 10
76.04345355524906
 20
-57.1002114394399
 30
0.0
 10
77.69999998057499
 20
-58.75675786476582
 30
0.0
 10
77.69999998057499
 20
-60.80021143851502
 30
0.0
 10
77.69999998057499
 20
-62.84366501226422
 30
0.0
 10
76.04345355524906
 20
-64.50021143759014
 30
0.0
 10
73.99999998149987
 20
-64.50021143759014
 30
0.0
 10
71.95654640775066
 20
-64.50021143759014
 30
0.0
 10
70.29999998242474
 20
-62.84366501226422
 30
0.0
 10
70.29999998242474
 20
-60.80021143851502
 30
0.0
  0
SPLINE
  5
42
330
1F
100
AcDbEntity
  8
LAYER_1
 62
     6
100
AcDbSpline
210
0.0
220
0.0
230
1.0
 70
    11
 71
     3
 72
    17
 73
    13
 74
     0
 42
0.0000000001
 43
0.0000000001
 12
1.0
 22
0.0
 32
0.0
 13
1.0
 23
0.0
 33
0.0
 40
0.0
 40
0.0
 40
0.0
 40
0.0
 40
1.0
 40
1.0
 40
1.0
 40
2.0
 40
2.0
 40
2.0
 40
3.0
 40
3.0
 40
3.0
 40
4.0
 40
4.0
 40
4.0
 40
4.0
 10
48.40000113230918
 20
-67.41021027469205
 30
0.0
 10
48.40000113230918
 20
-65.3667572705778
 30
0.0
 10
50.05654838158308
 20
-63.71021002130389
 30
0.0
 10
52.10000138569733
 20
-63.71021002130389
 30
0.0
 10
54.14345438981158
 20
-63.71021002130389
 30
0.0
 10
55.80000163908549
 20
-65.3667572705778
 30
0.0
 10
55.80000163908549
 20
-67.41021027469205
 30
0.0
 10
55.80000163908549
 20
-69.45366327880629
 30
0.0
 10
54.14345438981158
 20
-71.1102105280802
 30
0.0
 10
52.10000138569733
 20
-71.1102105280802
 30
0.0
 10
50.05654838158308
 20
-71.1102105280802
 30
0.0
 10
48.40000113230918
 20
-69.45366327880629
 30
0.0
 10
48.40000113230918
 20
-67.41021027469205
 30
0.0
  0
SPLINE
  5
43
330
1F
100
AcDbEntity
  8
LAYER_1
 62
     6
100
AcDbSpline
210
0.0
220
0.0
230
1.0
 70
    11
 71
     3
 72
    17
 73
    13
 74
     0
 42
0.0000000001
 43
0.0000000001
 12
1.0
 22
0.0
 32
0.0
 13
1.0
 23
0.0
 33
0.0
 40
0.0
 40
0.0
 40
0.0
 40
0.0
 40
1.0
 40
1.0
 40
1.0
 40
2.0
 40
2.0
 40
2.0
 40
3.0
 40
3.0
 40
3.0
 40
4.0
 40
4.0
 40
4.0
 40
4.0
 10
92.1999999769499
 20
-67.4102114368626
 30
0.0
 10
92.1999999769499
 20
-65.3667578631137
 30
0.0
 10
93.85654640227581
 20
-63.71021143778779
 30
0.0
 10
95.89999997602501
 20
-63.71021143778779
 30
0.0
 10
97.94345354977422
 20
-63.71021143778779
 30
0.0
 10
99.59999997510013
 20
-65.3667578631137
 30
0.0
 10
99.59999997510013
 20
-67.4102114368626
 30
0.0
 10
99.59999997510013
 20
-69.45366501061179
 30
0.0
 10
97.94345354977422
 20
-71.11021143593771
 30
0.0
 10
95.89999997602501
 20
-71.11021143593771
 30
0.0
 10
93.85654640227581
 20
-71.11021143593771
 30
0.0
 10
92.1999999769499
 20
-69.45366501061179
 30
0.0
 10
92.1999999769499
 20
-67.4102114368626
 30
0.0
  0
SPLINE
  5
44
330
1F
100
AcDbEntity
  8
LAYER_1
 62
     6
100
AcDbSpline
210
0.0
220
0.0
230
1.0
 70
    11
 71
     3
 72
    17
 73
    13
 74
     0
 42
0.0000000001
 43
0.0000000001
 12
1.0
 22
0.0
 32
0.0
 13
1.0
 23
0.0
 33
0.0
 40
0.0
 40
0.0
 40
0.0
 40
0.0
 40
1.0
 40
1.0
 40
1.0
 40
2.0
 40
2.0
 40
2.0
 40
3.0
 40
3.0
 40
3.0
 40
4.0
 40
4.0
 40
4.0
 40
4.0
 10
91.19999997720012
 20
-101.4102114283622
 30
0.0
 10
91.19999997720012
 20
-99.36675785461335
 30
0.0
 10
92.85654640252572
 20
-97.71021142928744
 30
0.0
 10
94.89999997627493
 20
-97.71021142928744
 30
0.0
 10
96.94345355002412
 20
-97.71021142928744
 30
0.0
 10
98.59999997535004
 20
-99.36675785461335
 30
0.0
 10
98.59999997535004
 20
-101.4102114283622
 30
0.0
 10
98.59999997535004
 20
-103.4536650021118
 30
0.0
 10
96.94345355002412
 20
-105.1102114274377
 30
0.0
 10
94.89999997627493
 20
-105.1102114274377
 30
0.0
 10
92.85654640252572
 20
-105.1102114274377
 30
0.0
 10
91.19999997720012
 20
-103.4536650021118
 30
0.0
 10
91.19999997720012
 20
-101.4102114283622
 30
0.0
  0
SPLINE
  5
45
330
1F
100
AcDbEntity
  8
LAYER_1
 62
     6
100
AcDbSpline
210
0.0
220
0.0
230
1.0
 70
    11
 71
     3
 72
    17
 73
    13
 74
     0
 42
0.0000000001
 43
0.0000000001
 12
1.0
 22
0.0
 32
0.0
 13
1.0
 23
0.0
 33
0.0
 40
0.0
 40
0.0
 40
0.0
 40
0.0
 40
1.0
 40
1.0
 40
1.0
 40
2.0
 40
2.0
 40
2.0
 40
3.0
 40
3.0
 40
3.0
 40
4.0
 40
4.0
 40
4.0
 40
4.0
 10
49.40162931551553
 20
-101.4102114283622
 30
0.0
 10
49.40162931551553
 20
-99.36675785461335
 30
0.0
 10
51.05817574084145
 20
-97.71021142928744
 30
0.0
 10
53.10162931459065
 20
-97.71021142928744
 30
0.0
 10
55.14508288833984
 20
-97.71021142928744
 30
0.0
 10
56.80162931366577
 20
-99.36675785461335
 30
0.0
 10
56.80162931366577
 20
-101.4102114283622
 30
0.0
 10
56.80162931366577
 20
-103.4536650021118
 30
0.0
 10
55.14508288833984
 20
-105.1102114274377
 30
0.0
 10
53.10162931459065
 20
-105.1102114274377
 30
0.0
 10
51.05817574084145
 20
-105.1102114274377
 30
0.0
 10
49.40162931551553
 20
-103.4536650021118
 30
0.0
 10
49.40162931551553
 20
-101.4102114283622
 30
0.0
  0
SPLINE
  5
46
330
1F
100
AcDbEntity
  8
LAYER_1
 62
     6
100
AcDbSpline
210
0.0
220
0.0
230
1.0
 70
    11
 71
     3
 72
    17
 73
    13
 74
     0
 42
0.0000000001
 43
0.0000000001
 12
1.0
 22
0.0
 32
0.0
 13
1.0
 23
0.0
 33
0.0
 40
0.0
 40
0.0
 40
0.0
 40
0.0
 40
1.0
 40
1.0
 40
1.0
 40
2.0
 40
2.0
 40
2.0
 40
3.0
 40
3.0
 40
3.0
 40
4.0
 40
4.0
 40
4.0
 40
4.0
 10
70.29999998242474
 20
-113.8002114252652
 30
0.0
 10
70.29999998242474
 20
-111.756757851516
 30
0.0
 10
71.95654640775066
 20
-110.10021142619
 30
0.0
 10
73.99999998149987
 20
-110.10021142619
 30
0.0
 10
76.04345355524906
 20
-110.10021142619
 30
0.0
 10
77.69999998057499
 20
-111.756757851516
 30
0.0
 10
77.69999998057499
 20
-113.8002114252652
 30
0.0
 10
77.69999998057499
 20
-115.8436649990144
 30
0.0
 10
76.04345355524906
 20
-117.5002114243403
 30
0.0
 10
73.99999998149987
 20
-117.5002114243403
 30
0.0
 10
71.95654640775066
 20
-117.5002114243403
 30
0.0
 10
70.29999998242474
 20
-115.8436649990144
 30
0.0
 10
70.29999998242474
 20
-113.8002114252652
 30
0.0
  0
SPLINE
  5
47
330
1F
100
AcDbEntity
  8
LAYER_1
 62
     3
100
AcDbSpline
210
0.0
220
0.0
230
1.0
 70
    11
 71
     3
 72
    17
 73
    13
 74
     0
 42
0.0000000001
 43
0.0000000001
 12
1.0
 22
0.0
 32
0.0
 13
1.0
 23
0.0
 33
0.0
 40
0.0
 40
0.0
 40
0.0
 40
0.0
 40
1.0
 40
1.0
 40
1.0
 40
2.0
 40
2.0
 40
2.0
 40
3.0
 40
3.0
 40
3.0
 40
4.0
 40
4.0
 40
4.0
 40
4.0
 10
43.99999998899995
 20
-147.4102114168627
 30
0.0
 10
43.99999998899995
 20
-145.7533571678774
 30
0.0
 10
45.34314573926462
 20
-144.4102114176127
 30
0.0
 10
46.9999999882499
 20
-144.4102114176127
 30
0.0
 10
48.65685423723551
 20
-144.4102114176127
 30
0.0
 10
49.99999998750018
 20
-145.7533571678774
 30
0.0
 10
49.99999998750018
 20
-147.4102114168627
 30
0.0
 10
49.99999998750018
 20
-149.067065665848
 30
0.0
 10
48.65685423723551
 20
-150.4102114161126
 30
0.0
 10
46.9999999882499
 20
-150.4102114161126
 30
0.0
 10
45.34314573926462
 20
-150.4102114161126
 30
0.0
 10
43.99999998899995
 20
-149.067065665848
 30
0.0
 10
43.99999998899995
 20
-147.4102114168627
 30
0.0
  0
SPLINE
  5
48
330
1F
100
AcDbEntity
  8
LAYER_1
 62
     3
100
AcDbSpline
210
0.0
220
0.0
230
1.0
 70
    11
 71
     3
 72
    17
 73
    13
 74
     0
 42
0.0000000001
 43
0.0000000001
 12
1.0
 22
0.0
 32
0.0
 13
1.0
 23
0.0
 33
0.0
 40
0.0
 40
0.0
 40
0.0
 40
0.0
 40
1.0
 40
1.0
 40
1.0
 40
2.0
 40
2.0
 40
2.0
 40
3.0
 40
3.0
 40
3.0
 40
4.0
 40
4.0
 40
4.0
 40
4.0
 10
57.49999998562508
 20
-147.4102114168627
 30
0.0
 10
57.49999998562508
 20
-145.7533571678774
 30
0.0
 10
58.84314573588912
 20
-144.4102114176127
 30
0.0
 10
60.49999998487505
 20
-144.4102114176127
 30
0.0
 10
62.15685423386032
 20
-144.4102114176127
 30
0.0
 10
63.499999984125
 20
-145.7533571678774
 30
0.0
 10
63.499999984125
 20
-147.4102114168627
 30
0.0
 10
63.499999984125
 20
-149.067065665848
 30
0.0
 10
62.15685423386032
 20
-150.4102114161126
 30
0.0
 10
60.49999998487505
 20
-150.4102114161126
 30
0.0
 10
58.84314573588912
 20
-150.4102114161126
 30
0.0
 10
57.49999998562508
 20
-149.067065665848
 30
0.0
 10
57.49999998562508
 20
-147.4102114168627
 30
0.0
  0
SPLINE
  5
49
330
1F
100
AcDbEntity
  8
LAYER_1
 62
     3
100
AcDbSpline
210
0.0
220
0.0
230
1.0
 70
    11
 71
     3
 72
    17
 73
    13
 74
     0
 42
0.0000000001
 43
0.0000000001
 12
1.0
 22
0.0
 32
0.0
 13
1.0
 23
0.0
 33
0.0
 40
0.0
 40
0.0
 40
0.0
 40
0.0
 40
1.0
 40
1.0
 40
1.0
 40
2.0
 40
2.0
 40
2.0
 40
3.0
 40
3.0
 40
3.0
 40
4.0
 40
4.0
 40
4.0
 40
4.0
 10
44.00000054001183
 20
-130.4102138617117
 30
0.0
 10
44.00000054001183
 20
-128.7533597836211
 30
0.0
 10
45.34314637640022
 20
-127.4102139472327
 30
0.0
 10
47.00000045449078
 20
-127.4102139472327
 30
0.0
 10
48.65685453258134
 20
-127.4102139472327
 30
0.0
 10
50.00000036896973
 20
-128.7533597836211
 30
0.0
 10
50.00000036896973
 20
-130.4102138617117
 30
0.0
 10
50.00000036896973
 20
-132.0670679398023
 30
0.0
 10
48.65685453258134
 20
-133.4102137761906
 30
0.0
 10
47.00000045449078
 20
-133.4102137761906
 30
0.0
 10
45.34314637640022
 20
-133.4102137761906
 30
0.0
 10
44.00000054001183
 20
-132.0670679398023
 30
0.0
 10
44.00000054001183
 20
-130.4102138617117
 30
0.0
  0
SPLINE
  5
4A
330
1F
100
AcDbEntity
  8
LAYER_1
 62
     3
100
AcDbSpline
210
0.0
220
0.0
230
1.0
 70
    11
 71
     3
 72
    17
 73
    13
 74
     0
 42
0.0000000001
 43
0.0000000001
 12
1.0
 22
0.0
 32
0.0
 13
1.0
 23
0.0
 33
0.0
 40
0.0
 40
0.0
 40
0.0
 40
0.0
 40
1.0
 40
1.0
 40
1.0
 40
2.0
 40
2.0
 40
2.0
 40
3.0
 40
3.0
 40
3.0
 40
4.0
 40
4.0
 40
4.0
 40
4.0
 10
57.49999998562508
 20
-130.4102114211127
 30
0.0
 10
57.49999998562508
 20
-128.7533571721274
 30
0.0
 10
58.84314573588944
 20
-127.4102114218627
 30
0.0
 10
60.49999998487505
 20
-127.4102114218627
 30
0.0
 10
62.15685423386065
 20
-127.4102114218627
 30
0.0
 10
63.499999984125
 20
-128.7533571721274
 30
0.0
 10
63.499999984125
 20
-130.4102114211127
 30
0.0
 10
63.499999984125
 20
-132.0670656700983
 30
0.0
 10
62.15685423386065
 20
-133.4102114203627
 30
0.0
 10
60.49999998487505
 20
-133.4102114203627
 30
0.0
 10
58.84314573588944
 20
-133.4102114203627
 30
0.0
 10
57.49999998562508
 20
-132.0670656700983
 30
0.0
 10
57.49999998562508
 20
-130.4102114211127
 30
0.0
  0
SPLINE
  5
4B
330
1F
100
AcDbEntity
  8
LAYER_1
 62
     3
100
AcDbSpline
210
0.0
220
0.0
230
1.0
 70
    11
 71
     3
 72
    17
 73
    13
 74
     0
 42
0.0000000001
 43
0.0000000001
 12
1.0
 22
0.0
 32
0.0
 13
1.0
 23
0.0
 33
0.0
 40
0.0
 40
0.0
 40
0.0
 40
0.0
 40
1.0
 40
1.0
 40
1.0
 40
2.0
 40
2.0
 40
2.0
 40
3.0
 40
3.0
 40
3.0
 40
4.0
 40
4.0
 40
4.0
 40
4.0
 10
70.9999999822499
 20
-147.4102114168627
 30
0.0
 10
70.9999999822499
 20
-145.7533571678774
 30
0.0
 10
72.34314573251459
 20
-144.4102114176127
 30
0.0
 10
73.99999998149987
 20
-144.4102114176127
 30
0.0
 10
75.65685423048546
 20
-144.4102114176127
 30
0.0
 10
76.99999998074982
 20
-145.7533571678774
 30
0.0
 10
76.99999998074982
 20
-147.4102114168627
 30
0.0
 10
76.99999998074982
 20
-149.067065665848
 30
0.0
 10
75.65685423048546
 20
-150.4102114161126
 30
0.0
 10
73.99999998149987
 20
-150.4102114161126
 30
0.0
 10
72.34314573251459
 20
-150.4102114161126
 30
0.0
 10
70.9999999822499
 20
-149.067065665848
 30
0.0
 10
70.9999999822499
 20
-147.4102114168627
 30
0.0
  0
SPLINE
  5
4C
330
1F
100
AcDbEntity
  8
LAYER_1
 62
     3
100
AcDbSpline
210
0.0
220
0.0
230
1.0
 70
    11
 71
     3
 72
    17
 73
    13
 74
     0
 42
0.0000000001
 43
0.0000000001
 12
1.0
 22
0.0
 32
0.0
 13
1.0
 23
0.0
 33
0.0
 40
0.0
 40
0.0
 40
0.0
 40
0.0
 40
1.0
 40
1.0
 40
1.0
 40
2.0
 40
2.0
 40
2.0
 40
3.0
 40
3.0
 40
3.0
 40
4.0
 40
4.0
 40
4.0
 40
4.0
 10
84.49999997887504
 20
-147.4102114168627
 30
0.0
 10
84.49999997887504
 20
-145.7533571678774
 30
0.0
 10
85.8431457291394
 20
-144.4102114176127
 30
0.0
 10
87.499999978125
 20
-144.4102114176127
 30
0.0
 10
89.1568542271106
 20
-144.4102114176127
 30
0.0
 10
90.49999997737496
 20
-145.7533571678774
 30
0.0
 10
90.49999997737496
 20
-147.4102114168627
 30
0.0
 10
90.49999997737496
 20
-149.067065665848
 30
0.0
 10
89.1568542271106
 20
-150.4102114161126
 30
0.0
 10
87.499999978125
 20
-150.4102114161126
 30
0.0
 10
85.8431457291394
 20
-150.4102114161126
 30
0.0
 10
84.49999997887504
 20
-149.067065665848
 30
0.0
 10
84.49999997887504
 20
-147.4102114168627
 30
0.0
  0
SPLINE
  5
4D
330
1F
100
AcDbEntity
  8
LAYER_1
 62
     3
100
AcDbSpline
210
0.0
220
0.0
230
1.0
 70
    11
 71
     3
 72
    17
 73
    13
 74
     0
 42
0.0000000001
 43
0.0000000001
 12
1.0
 22
0.0
 32
0.0
 13
1.0
 23
0.0
 33
0.0
 40
0.0
 40
0.0
 40
0.0
 40
0.0
 40
1.0
 40
1.0
 40
1.0
 40
2.0
 40
2.0
 40
2.0
 40
3.0
 40
3.0
 40
3.0
 40
4.0
 40
4.0
 40
4.0
 40
4.0
 10
97.99999997549986
 20
-147.4102114168627
 30
0.0
 10
97.99999997549986
 20
-145.7533571678774
 30
0.0
 10
99.34314572576422
 20
-144.4102114176127
 30
0.0
 10
100.9999999747498
 20
-144.4102114176127
 30
0.0
 10
102.6568542237354
 20
-144.4102114176127
 30
0.0
 10
103.9999999739998
 20
-145.7533571678774
 30
0.0
 10
103.9999999739998
 20
-147.4102114168627
 30
0.0
 10
103.9999999739998
 20
-149.067065665848
 30
0.0
 10
102.6568542237354
 20
-150.4102114161126
 30
0.0
 10
100.9999999747498
 20
-150.4102114161126
 30
0.0
 10
99.34314572576422
 20
-150.4102114161126
 30
0.0
 10
97.99999997549986
 20
-149.067065665848
 30
0.0
 10
97.99999997549986
 20
-147.4102114168627
 30
0.0
  0
SPLINE
  5
4E
330
1F
100
AcDbEntity
  8
LAYER_1
 62
     3
100
AcDbSpline
210
0.0
220
0.0
230
1.0
 70
    11
 71
     3
 72
    17
 73
    13
 74
     0
 42
0.0000000001
 43
0.0000000001
 12
1.0
 22
0.0
 32
0.0
 13
1.0
 23
0.0
 33
0.0
 40
0.0
 40
0.0
 40
0.0
 40
0.0
 40
1.0
 40
1.0
 40
1.0
 40
2.0
 40
2.0
 40
2.0
 40
3.0
 40
3.0
 40
3.0
 40
4.0
 40
4.0
 40
4.0
 40
4.0
 10
97.99999997549986
 20
-130.4102114211127
 30
0.0
 10
97.99999997549986
 20
-128.7533571721274
 30
0.0
 10
99.34314572576422
 20
-127.4102114218627
 30
0.0
 10
100.9999999747498
 20
-127.4102114218627
 30
0.0
 10
102.6568542237354
 20
-127.4102114218627
 30
0.0
 10
103.9999999739998
 20
-128.7533571721274
 30
0.0
 10
103.9999999739998
 20
-130.4102114211127
 30
0.0
 10
103.9999999739998
 20
-132.0670656700983
 30
0.0
 10
102.6568542237354
 20
-133.4102114203627
 30
0.0
 10
100.9999999747498
 20
-133.4102114203627
 30
0.0
 10
99.34314572576422
 20
-133.4102114203627
 30
0.0
 10
97.99999997549986
 20
-132.0670656700983
 30
0.0
 10
97.99999997549986
 20
-130.4102114211127
 30
0.0
  0
SPLINE
  5
4F
330
1F
100
AcDbEntity
  8
LAYER_1
 62
     6
100
AcDbSpline
210
0.0
220
0.0
230
1.0
 70
    11
 71
     3
 72
    17
 73
    13
 74
     0
 42
0.0000000001
 43
0.0000000001
 12
1.0
 22
0.0
 32
0.0
 13
1.0
 23
0.0
 33
0.0
 40
0.0
 40
0.0
 40
0.0
 40
0.0
 40
1.0
 40
1.0
 40
1.0
 40
2.0
 40
2.0
 40
2.0
 40
3.0
 40
3.0
 40
3.0
 40
4.0
 40
4.0
 40
4.0
 40
4.0
 10
84.39999997890007
 20
-130.4102114211127
 30
0.0
 10
84.39999997890007
 20
-128.698128697161
 30
0.0
 10
85.78791725417331
 20
-127.3102114218878
 30
0.0
 10
87.499999978125
 20
-127.3102114218878
 30
0.0
 10
89.2120827020767
 20
-127.3102114218878
 30
0.0
 10
90.59999997734994
 20
-128.698128697161
 30
0.0
 10
90.59999997734994
 20
-130.4102114211127
 30
0.0
 10
90.59999997734994
 20
-132.1222941450644
 30
0.0
 10
89.2120827020767
 20
-133.5102114203376
 30
0.0
 10
87.499999978125
 20
-133.5102114203376
 30
0.0
 10
85.78791725417331
 20
-133.5102114203376
 30
0.0
 10
84.39999997890007
 20
-132.1222941450644
 30
0.0
 10
84.39999997890007
 20
-130.4102114211127
 30
0.0
  0
SPLINE
  5
50
330
1F
100
AcDbEntity
  8
LAYER_1
 62
     4
100
AcDbSpline
210
0.0
220
0.0
230
1.0
 70
    11
 71
     3
 72
    17
 73
    13
 74
     0
 42
0.0000000001
 43
0.0000000001
 12
1.0
 22
0.0
 32
0.0
 13
1.0
 23
0.0
 33
0.0
 40
0.0
 40
0.0
 40
0.0
 40
0.0
 40
1.0
 40
1.0
 40
1.0
 40
2.0
 40
2.0
 40
2.0
 40
3.0
 40
3.0
 40
3.0
 40
4.0
 40
4.0
 40
4.0
 40
4.0
 10
48.59999998784986
 20
-140.4102114186124
 30
0.0
 10
48.59999998784986
 20
-139.58178429412
 30
0.0
 10
49.27157286298188
 20
-138.9102114189877
 30
0.0
 10
50.09999998747484
 20
-138.9102114189877
 30
0.0
 10
50.9284271119678
 20
-138.9102114189877
 30
0.0
 10
51.59999998709982
 20
-139.58178429412
 30
0.0
 10
51.59999998709982
 20
-140.4102114186124
 30
0.0
 10
51.59999998709982
 20
-141.2386385431063
 30
0.0
 10
50.9284271119678
 20
-141.9102114182373
 30
0.0
 10
50.09999998747484
 20
-141.9102114182373
 30
0.0
 10
49.27157286298188
 20
-141.9102114182373
 30
0.0
 10
48.59999998784986
 20
-141.2386385431063
 30
0.0
 10
48.59999998784986
 20
-140.4102114186124
 30
0.0
  0
SPLINE
  5
51
330
1F
100
AcDbEntity
  8
LAYER_1
 62
     4
100
AcDbSpline
210
0.0
220
0.0
230
1.0
 70
    11
 71
     3
 72
    17
 73
    13
 74
     0
 42
0.0000000001
 43
0.0000000001
 12
1.0
 22
0.0
 32
0.0
 13
1.0
 23
0.0
 33
0.0
 40
0.0
 40
0.0
 40
0.0
 40
0.0
 40
1.0
 40
1.0
 40
1.0
 40
2.0
 40
2.0
 40
2.0
 40
3.0
 40
3.0
 40
3.0
 40
4.0
 40
4.0
 40
4.0
 40
4.0
 10
62.099999984475
 20
-140.4102114186124
 30
0.0
 10
62.099999984475
 20
-139.58178429412
 30
0.0
 10
62.77157285960702
 20
-138.9102114189877
 30
0.0
 10
63.59999998409998
 20
-138.9102114189877
 30
0.0
 10
64.42842710859294
 20
-138.9102114189877
 30
0.0
 10
65.09999998372496
 20
-139.58178429412
 30
0.0
 10
65.09999998372496
 20
-140.4102114186124
 30
0.0
 10
65.09999998372496
 20
-141.2386385431063
 30
0.0
 10
64.42842710859294
 20
-141.9102114182373
 30
0.0
 10
63.59999998409998
 20
-141.9102114182373
 30
0.0
 10
62.77157285960702
 20
-141.9102114182373
 30
0.0
 10
62.099999984475
 20
-141.2386385431063
 30
0.0
 10
62.099999984475
 20
-140.4102114186124
 30
0.0
  0
SPLINE
  5
52
330
1F
100
AcDbEntity
  8
LAYER_1
 62
     4
100
AcDbSpline
210
0.0
220
0.0
230
1.0
 70
    11
 71
     3
 72
    17
 73
    13
 74
     0
 42
0.0000000001
 43
0.0000000001
 12
1.0
 22
0.0
 32
0.0
 13
1.0
 23
0.0
 33
0.0
 40
0.0
 40
0.0
 40
0.0
 40
0.0
 40
1.0
 40
1.0
 40
1.0
 40
2.0
 40
2.0
 40
2.0
 40
3.0
 40
3.0
 40
3.0
 40
4.0
 40
4.0
 40
4.0
 40
4.0
 10
72.49999972756186
 20
-137.4102064848803
 30
0.0
 10
72.49999972756186
 20
-136.581779445835
 30
0.0
 10
73.17157264575604
 20
-135.9102119106025
 30
0.0
 10
73.99999968480132
 20
-135.9102119106025
 30
0.0
 10
74.8284267238466
 20
-135.9102119106025
 30
0.0
 10
75.49999964204112
 20
-136.581779445835
 30
0.0
 10
75.49999964204112
 20
-137.4102064848803
 30
0.0
 10
75.49999964204112
 20
-138.2386335239259
 30
0.0
 10
74.8284267238466
 20
-138.9102118250815
 30
0.0
 10
73.99999968480132
 20
-138.9102118250815
 30
0.0
 10
73.17157264575604
 20
-138.9102118250815
 30
0.0
 10
72.49999972756186
 20
-138.2386335239259
 30
0.0
 10
72.49999972756186
 20
-137.4102064848803
 30
0.0
  0
SPLINE
  5
53
330
1F
100
AcDbEntity
  8
LAYER_1
 62
     4
100
AcDbSpline
210
0.0
220
0.0
230
1.0
 70
    11
 71
     3
 72
    17
 73
    13
 74
     0
 42
0.0000000001
 43
0.0000000001
 12
1.0
 22
0.0
 32
0.0
 13
1.0
 23
0.0
 33
0.0
 40
0.0
 40
0.0
 40
0.0
 40
0.0
 40
1.0
 40
1.0
 40
1.0
 40
2.0
 40
2.0
 40
2.0
 40
3.0
 40
3.0
 40
3.0
 40
4.0
 40
4.0
 40
4.0
 40
4.0
 10
82.89999997927508
 20
-140.4102114186124
 30
0.0
 10
82.89999997927508
 20
-139.58178429412
 30
0.0
 10
83.57157285440711
 20
-138.9102114189877
 30
0.0
 10
84.39999997890007
 20
-138.9102114189877
 30
0.0
 10
85.22842710339303
 20
-138.9102114189877
 30
0.0
 10
85.89999997852505
 20
-139.58178429412
 30
0.0
 10
85.89999997852505
 20
-140.4102114186124
 30
0.0
 10
85.89999997852505
 20
-141.2386385431063
 30
0.0
 10
85.22842710339303
 20
-141.9102114182373
 30
0.0
 10
84.39999997890007
 20
-141.9102114182373
 30
0.0
 10
83.57157285440711
 20
-141.9102114182373
 30
0.0
 10
82.89999997927508
 20
-141.2386385431063
 30
0.0
 10
82.89999997927508
 20
-140.4102114186124
 30
0.0
  0
SPLINE
  5
54
330
1F
100
AcDbEntity
  8
LAYER_1
 62
     4
100
AcDbSpline
210
0.0
220
0.0
230
1.0
 70
    11
 71
     3
 72
    17
 73
    13
 74
     0
 42
0.0000000001
 43
0.0000000001
 12
1.0
 22
0.0
 32
0.0
 13
1.0
 23
0.0
 33
0.0
 40
0.0
 40
0.0
 40
0.0
 40
0.0
 40
1.0
 40
1.0
 40
1.0
 40
2.0
 40
2.0
 40
2.0
 40
3.0
 40
3.0
 40
3.0
 40
4.0
 40
4.0
 40
4.0
 40
4.0
 10
96.3999999758999
 20
-140.4102114186124
 30
0.0
 10
96.3999999758999
 20
-139.58178429412
 30
0.0
 10
97.07157285103192
 20
-138.9102114189877
 30
0.0
 10
97.89999997552488
 20
-138.9102114189877
 30
0.0
 10
98.72842710001784
 20
-138.9102114189877
 30
0.0
 10
99.39999997514987
 20
-139.58178429412
 30
0.0
 10
99.39999997514987
 20
-140.4102114186124
 30
0.0
 10
99.39999997514987
 20
-141.2386385431063
 30
0.0
 10
98.72842710001784
 20
-141.9102114182373
 30
0.0
 10
97.89999997552488
 20
-141.9102114182373
 30
0.0
 10
97.07157285103192
 20
-141.9102114182373
 30
0.0
 10
96.3999999758999
 20
-141.2386385431063
 30
0.0
 10
96.3999999758999
 20
-140.4102114186124
 30
0.0
  0
POLYLINE
  5
55
330
1F
100
AcDbEntity
  8
LAYER_1
 62
     7
100
AcDb2dPolyline
 66
     1
 10
0.0
 20
0.0
 30
0.0
  0
VERTEX
  5
56
330
55
100
AcDbEntity
  8
LAYER_1
 62
     7
100
AcDbVertex
100
AcDb2dVertex
 10
38.59999999035021
 20
-38.90999999027228
 30
0.0
  0
VERTEX
  5
57
330
55
100
AcDbEntity
  8
LAYER_1
 62
     7
100
AcDbVertex
100
AcDb2dVertex
 10
109.3999999726495
 20
-38.90999999027228
 30
0.0
  0
VERTEX
  5
58
330
55
100
AcDbEntity
  8
LAYER_1
 62
     7
100
AcDbVertex
100
AcDb2dVertex
 10
109.3999999726495
 20
-167.410422865578
 30
0.0
  0
VERTEX
  5
59
330
55
100
AcDbEntity
  8
LAYER_1
 62
     7
100
AcDbVertex
100
AcDb2dVertex
 10
38.59999999035021
 20
-167.410422865578
 30
0.0
  0
VERTEX
  5
5A
330
55
100
AcDbEntity
  8
LAYER_1
 62
     7
100
AcDbVertex
100
AcDb2dVertex
 10
38.59999999035021
 20
-38.90999999027228
 30
0.0
  0
SEQEND
  5
5B
330
55
100
AcDbEntity
  8
LAYER_1
 62
     7
  0
SPLINE
  5
5C
330
1F
100
AcDbEntity
  8
LAYER_1
 62
     7
100
AcDbSpline
210
0.0
220
0.0
230
1.0
 70
    11
 71
     3
 72
    29
 73
    25
 74
     0
 42
0.0000000001
 43
0.0000000001
 12
1.0
 22
0.0
 32
0.0
 13
1.0
 23
0.0
 33
0.0
 40
0.0
 40
0.0
 40
0.0
 40
0.0
 40
1.0
 40
1.0
 40
1.0
 40
2.0
 40
2.0
 40
2.0
 40
3.0
 40
3.0
 40
3.0
 40
4.0
 40
4.0
 40
4.0
 40
5.0
 40
5.0
 40
5.0
 40
6.0
 40
6.0
 40
6.0
 40
7.0
 40
7.0
 40
7.0
 40
8.0
 40
8.0
 40
8.0
 40
8.0
 10
99.7522454304458
 20
-162.8102114130567
 30
0.0
 10
99.7522454304458
 20
-162.8102114130567
 30
0.0
 10
103.0477545189666
 20
-162.8102114129867
 30
0.0
 10
103.0477545189666
 20
-162.8102114129867
 30
0.0
 10
103.791489518965
 20
-162.8102114129713
 30
0.0
 10
104.3999999736449
 20
-163.4187218675033
 30
0.0
 10
104.3999999738108
 20
-164.1624568675011
 30
0.0
 10
104.3999999738108
 20
-164.1624568675011
 30
0.0
 10
104.3999999739209
 20
-164.657965956806
 30
0.0
 10
104.3999999739209
 20
-164.657965956806
 30
0.0
 10
104.3999999740867
 20
-165.4017009573062
 30
0.0
 10
103.7914895192673
 20
-166.0102114122508
 30
0.0
 10
103.0477545187667
 20
-166.0102114122386
 30
0.0
 10
103.0477545187667
 20
-166.0102114122386
 30
0.0
 10
99.75224543011468
 20
-166.0102114121815
 30
0.0
 10
99.75224543011468
 20
-166.0102114121815
 30
0.0
 10
99.00851042996962
 20
-166.0102114121693
 30
0.0
 10
98.3999999753388
 20
-165.4017009574942
 30
0.0
 10
98.39999997537923
 20
-164.6579659573495
 30
0.0
 10
98.39999997537923
 20
-164.6579659573495
 30
0.0
 10
98.3999999754065
 20
-164.1624568680504
 30
0.0
 10
98.3999999754065
 20
-164.1624568680504
 30
0.0
 10
98.39999997544693
 20
-163.4187218678197
 30
0.0
 10
99.00851043021474
 20
-162.8102114130727
 30
0.0
 10
99.7522454304458
 20
-162.8102114130567
 30
0.0
  0
SPLINE
  5
5D
330
1F
100
AcDbEntity
  8
LAYER_1
 62
     7
100
AcDbSpline
210
0.0
220
0.0
230
1.0
 70
    11
 71
     3
 72
    29
 73
    25
 74
     0
 42
0.0000000001
 43
0.0000000001
 12
1.0
 22
0.0
 32
0.0
 13
1.0
 23
0.0
 33
0.0
 40
0.0
 40
0.0
 40
0.0
 40
0.0
 40
1.0
 40
1.0
 40
1.0
 40
2.0
 40
2.0
 40
2.0
 40
3.0
 40
3.0
 40
3.0
 40
4.0
 40
4.0
 40
4.0
 40
5.0
 40
5.0
 40
5.0
 40
6.0
 40
6.0
 40
6.0
 40
7.0
 40
7.0
 40
7.0
 40
8.0
 40
8.0
 40
8.0
 40
8.0
 10
45.35224544406651
 20
-162.8102114130535
 30
0.0
 10
45.35224544406651
 20
-162.8102114130535
 30
0.0
 10
48.64775453258731
 20
-162.8102114129842
 30
0.0
 10
48.64775453258731
 20
-162.8102114129842
 30
0.0
 10
49.39148953258606
 20
-162.8102114129681
 30
0.0
 10
49.99999998726532
 20
-163.4187218674995
 30
0.0
 10
49.99999998743152
 20
-164.1624568674985
 30
0.0
 10
49.99999998743152
 20
-164.1624568674985
 30
0.0
 10
49.99999998754125
 20
-164.6579659568028
 30
0.0
 10
49.99999998754125
 20
-164.6579659568028
 30
0.0
 10
49.99999998770745
 20
-165.4017009573037
 30
0.0
 10
49.39148953288799
 20
-166.0102114122476
 30
0.0
 10
48.6477545323871
 20
-166.0102114122348
 30
0.0
 10
48.6477545323871
 20
-166.0102114122348
 30
0.0
 10
45.35224544373539
 20
-166.0102114121783
 30
0.0
 10
45.35224544373539
 20
-166.0102114121783
 30
0.0
 10
44.60851044359001
 20
-166.0102114121655
 30
0.0
 10
43.9999999889592
 20
-165.401700957491
 30
0.0
 10
43.99999998899963
 20
-164.6579659573456
 30
0.0
 10
43.99999998899963
 20
-164.6579659573456
 30
0.0
 10
43.99999998902722
 20
-164.1624568680472
 30
0.0
 10
43.99999998902722
 20
-164.1624568680472
 30
0.0
 10
43.99999998906765
 20
-163.4187218678165
 30
0.0
 10
44.60851044383514
 20
-162.8102114130689
 30
0.0
 10
45.35224544406651
 20
-162.8102114130535
 30
0.0
  0
SPLINE
  5
5E
330
1F
100
AcDbEntity
  8
LAYER_1
 62
     7
100
AcDbSpline
210
0.0
220
0.0
230
1.0
 70
    11
 71
     3
 72
    29
 73
    25
 74
     0
 42
0.0000000001
 43
0.0000000001
 12
1.0
 22
0.0
 32
0.0
 13
1.0
 23
0.0
 33
0.0
 40
0.0
 40
0.0
 40
0.0
 40
0.0
 40
1.0
 40
1.0
 40
1.0
 40
2.0
 40
2.0
 40
2.0
 40
3.0
 40
3.0
 40
3.0
 40
4.0
 40
4.0
 40
4.0
 40
5.0
 40
5.0
 40
5.0
 40
6.0
 40
6.0
 40
6.0
 40
7.0
 40
7.0
 40
7.0
 40
8.0
 40
8.0
 40
8.0
 40
8.0
 10
99.7522454304458
 20
-40.31021144368097
 30
0.0
 10
99.7522454304458
 20
-40.31021144368097
 30
0.0
 10
103.0477545189666
 20
-40.31021144361166
 30
0.0
 10
103.0477545189666
 20
-40.31021144361166
 30
0.0
 10
103.791489518965
 20
-40.31021144359627
 30
0.0
 10
104.3999999736449
 20
-40.91872189812825
 30
0.0
 10
104.3999999738108
 20
-41.66245689812605
 30
0.0
 10
104.3999999738108
 20
-41.66245689812605
 30
0.0
 10
104.3999999739209
 20
-42.15796598743026
 30
0.0
 10
104.3999999739209
 20
-42.15796598743026
 30
0.0
 10
104.3999999740867
 20
-42.90170098793115
 30
0.0
 10
103.7914895192673
 20
-43.5102114428751
 30
0.0
 10
103.0477545187667
 20
-43.51021144286356
 30
0.0
 10
103.0477545187667
 20
-43.51021144286356
 30
0.0
 10
99.75224543011468
 20
-43.5102114428058
 30
0.0
 10
99.75224543011468
 20
-43.5102114428058
 30
0.0
 10
99.00851042996962
 20
-43.51021144279425
 30
0.0
 10
98.3999999753388
 20
-42.90170098811853
 30
0.0
 10
98.39999997537923
 20
-42.15796598797442
 30
0.0
 10
98.39999997537923
 20
-42.15796598797442
 30
0.0
 10
98.3999999754065
 20
-41.66245689867534
 30
0.0
 10
98.3999999754065
 20
-41.66245689867534
 30
0.0
 10
98.39999997544693
 20
-40.91872189844397
 30
0.0
 10
99.00851043021474
 20
-40.31021144369765
 30
0.0
 10
99.7522454304458
 20
-40.31021144368097
 30
0.0
  0
SPLINE
  5
5F
330
1F
100
AcDbEntity
  8
LAYER_1
 62
     7
100
AcDbSpline
210
0.0
220
0.0
230
1.0
 70
    11
 71
     3
 72
    29
 73
    25
 74
     0
 42
0.0000000001
 43
0.0000000001
 12
1.0
 22
0.0
 32
0.0
 13
1.0
 23
0.0
 33
0.0
 40
0.0
 40
0.0
 40
0.0
 40
0.0
 40
1.0
 40
1.0
 40
1.0
 40
2.0
 40
2.0
 40
2.0
 40
3.0
 40
3.0
 40
3.0
 40
4.0
 40
4.0
 40
4.0
 40
5.0
 40
5.0
 40
5.0
 40
6.0
 40
6.0
 40
6.0
 40
7.0
 40
7.0
 40
7.0
 40
8.0
 40
8.0
 40
8.0
 40
8.0
 10
45.35224544404598
 20
-40.31021144368193
 30
0.0
 10
45.35224544404598
 20
-40.31021144368193
 30
0.0
 10
48.64775453256677
 20
-40.31021144361166
 30
0.0
 10
48.64775453256677
 20
-40.31021144361166
 30
0.0
 10
49.39148953256521
 20
-40.31021144359627
 30
0.0
 10
49.99999998724511
 20
-40.91872189812825
 30
0.0
 10
49.99999998741099
 20
-41.66245689812605
 30
0.0
 10
49.99999998741099
 20
-41.66245689812605
 30
0.0
 10
49.99999998752072
 20
-42.1579659874309
 30
0.0
 10
49.99999998752072
 20
-42.1579659874309
 30
0.0
 10
49.99999998768692
 20
-42.90170098793115
 30
0.0
 10
49.39148953286745
 20
-43.51021144287575
 30
0.0
 10
48.64775453236656
 20
-43.51021144286356
 30
0.0
 10
48.64775453236656
 20
-43.51021144286356
 30
0.0
 10
45.35224544371486
 20
-43.51021144280644
 30
0.0
 10
45.35224544371486
 20
-43.51021144280644
 30
0.0
 10
44.60851044356947
 20
-43.51021144279425
 30
0.0
 10
43.99999998893866
 20
-42.90170098811917
 30
0.0
 10
43.99999998897909
 20
-42.15796598797442
 30
0.0
 10
43.99999998897909
 20
-42.15796598797442
 30
0.0
 10
43.99999998900668
 20
-41.66245689867534
 30
0.0
 10
43.99999998900668
 20
-41.66245689867534
 30
0.0
 10
43.99999998904711
 20
-40.91872189844461
 30
0.0
 10
44.6085104438146
 20
-40.31021144369765
 30
0.0
 10
45.35224544404598
 20
-40.31021144368193
 30
0.0
  0
ENDSEC
  0
SECTION
  2
OBJECTS
  0
DICTIONARY
  5
C
330
0
100
AcDbDictionary
  3
ACAD_GROUP
350
D
  3
ACAD_LAYOUT
350
1A
  3
ACAD_MATERIAL
350
3B
  3
ACAD_MLEADERSTYLE
350
83
  3
ACAD_MLINESTYLE
350
17
  3
ACAD_PLOTSETTINGS
350
19
  3
ACAD_VISUALSTYLE
350
2A
  3
ACDBHEADERROUNDTRIPXREC
350
61
  3
ACDBVARIABLEDICTIONARY
350
81
  0
DICTIONARY
  5
D
102
{ACAD_REACTORS
330
C
102
}
330
C
100
AcDbDictionary
  0
DICTIONARY
  5
1A
102
{ACAD_REACTORS
330
C
102
}
330
C
100
AcDbDictionary
  0
DICTIONARY
  5
3B
102
{ACAD_REACTORS
330
C
102
}
330
C
100
AcDbDictionary
  3
BYBLOCK
350
3D
  3
BYLAYER
350
3C
  3
GLOBAL
350
3E
  0
DICTIONARY
  5
83
102
{ACAD_REACTORS
330
C
102
}
330
C
100
AcDbDictionary
  0
DICTIONARY
  5
17
102
{ACAD_REACTORS
330
C
102
}
330
C
100
AcDbDictionary
  3
STANDARD
350
18
  0
DICTIONARY
  5
19
102
{ACAD_REACTORS
330
C
102
}
330
C
100
AcDbDictionary
  0
DICTIONARY
  5
2A
102
{ACAD_REACTORS
330
C
102
}
330
C
100
AcDbDictionary
  3
2DWIREFRAME
350
2F
  3
3DWIREFRAME
350
30
  3
3D_HIDDEN
350
31
  3
BASIC
350
32
  3
BRIGHTEN
350
36
  3
COLORCHANGE
350
3A
  3
CONCEPTUAL
350
34
  3
DIM
350
35
  3
FACEPATTERN
350
39
  3
FLAT
350
2B
  3
FLATWITHEDGES
350
2C
  3
GOURAUD
350
2D
  3
GOURAUDWITHEDGES
350
2E
  3
LINEPATTERN
350
38
  3
REALISTIC
350
33
  3
THICKEN
350
37
  0
DICTIONARY
  5
61
102
{ACAD_REACTORS
330
C
102
}
330
C
100
AcDbDictionary
  3
CEPSNTYPE
350
6A
  3
DIMSTYLEDATA
350
80
  3
FINGERPRINTGUID
350
6B
  3
HYPERLINKBASE
350
64
  3
INSUNITS
350
69
  3
LAYOUTDICT
350
66
  3
LWETCUNION
350
68
  3
PLOTSETDICT
350
67
  3
PSVPSCALE
350
6D
  3
PUCSBASE
350
70
  3
PUCSORGBACK
350
76
  3
PUCSORGBOTTOM
350
72
  3
PUCSORGFRONT
350
75
  3
PUCSORGLEFT
350
73
  3
PUCSORGRIGHT
350
74
  3
PUCSORGTOP
350
71
  3
PUCSORTHOREF
350
6E
  3
PUCSORTHOVIEW
350
6F
  3
STYLESHEET
350
65
  3
TSTACKALIGN
350
62
  3
TSTACKSIZE
350
63
  3
UCSBASE
350
79
  3
UCSORGBACK
350
7F
  3
UCSORGBOTTOM
350
7B
  3
UCSORGFRONT
350
7E
  3
UCSORGLEFT
350
7C
  3
UCSORGRIGHT
350
7D
  3
UCSORGTOP
350
7A
  3
UCSORTHOREF
350
77
  3
UCSORTHOVIEW
350
78
  3
VERSIONGUID
350
6C
  0
DICTIONARY
  5
81
102
{ACAD_REACTORS
330
C
102
}
330
C
100
AcDbDictionary
  3
DIMASSOC
350
84
  3
HIDETEXT
350
85
  0
MATERIAL
  5
3D
102
{ACAD_REACTORS
330
3B
102
}
102
{ACAD_XDICTIONARY
360
88
102
}
330
3B
100
AcDbMaterial
  1
ByBlock
  0
MATERIAL
  5
3C
102
{ACAD_REACTORS
330
3B
102
}
102
{ACAD_XDICTIONARY
360
86
102
}
330
3B
100
AcDbMaterial
  1
ByLayer
  0
MATERIAL
  5
3E
102
{ACAD_REACTORS
330
3B
102
}
102
{ACAD_XDICTIONARY
360
8A
102
}
330
3B
100
AcDbMaterial
  1
Global
  0
MLINESTYLE
  5
18
102
{ACAD_REACTORS
330
17
102
}
330
17
100
AcDbMlineStyle
  2
Standard
 70
     0
  3

 62
   256
 51
90.0
 52
90.0
 71
     2
 49
0.5
 62
   256
  6
BYLAYER
 49
-0.5
 62
   256
  6
BYLAYER
  0
ACAD_PROXY_OBJECT
  5
2F
102
{ACAD_REACTORS
330
2A
102
}
330
2A
100
AcDbProxyObject
 90
      499
 91
      501
 93
      436
310
42CC9915DA5C99599C985B595049028333333333333E3BF0000000000000FB0107901411070040501600405405064090741402480A0340
1001
ACAD
1000
AcDbSavedByObjectVersion
1070
     0
  0
ACAD_PROXY_OBJECT
  5
30
102
{ACAD_REACTORS
330
2A
102
}
330
2A
100
AcDbProxyObject
 90
      499
 91
      501
 93
      436
310
42CCD915DA5C99599C985B595059028333333333333E3BF0000000000000FB0107901411070040501600405405064090741402480A0340
1001
ACAD
1000
AcDbSavedByObjectVersion
1070
     0
  0
ACAD_PROXY_OBJECT
  5
31
102
{ACAD_REACTORS
330
2A
102
}
330
2A
100
AcDbProxyObject
 90
      499
 91
      501
 93
      500
310
424CD108121A5919195B90640502408333333333333E3BF0000000000000FB01079024090700405020000000000001110200405405064090740C02480A0340
1001
ACAD
1000
AcDbSavedByObjectVersion
1070
     0
  0
ACAD_PROXY_OBJECT
  5
32
102
{ACAD_REACTORS
330
2A
102
}
330
2A
100
AcDbProxyObject
 90
      499
 91
      501
 93
      388
310
4150985CDA58D07406404333333333333E3BF0000000000000FB0107A41107004050150841D405064090741402480A0350
1001
ACAD
1000
AcDbSavedByObjectVersion
1070
     0
  0
ACAD_PROXY_OBJECT
  5
36
102
{ACAD_REACTORS
330
2A
102
}
330
2A
100
AcDbProxyObject
 90
      499
 91
      501
 93
      428
310
42109C9A59DA1D195B90C409028333333333333E3BF0000000000000FB010790141107004050150841D405064090741402480A029950
1001
ACAD
1000
AcDbSavedByObjectVersion
1070
     0
  0
ACAD_PROXY_OBJECT
  5
3A
102
{ACAD_REACTORS
330
2A
102
}
330
2A
100
AcDbProxyObject
 90
      499
 91
      501
 93
      452
310
42D0DBDB1BDC90DA185B99D95104090240C333333333333E3BF0000000000000FB0108901411070040501508421405064090741402480A0350
1001
ACAD
1000
AcDbSavedByObjectVersion
1070
     0
  0
ACAD_PROXY_OBJECT
  5
34
102
{ACAD_REACTORS
330
2A
102
}
330
2A
100
AcDbProxyObject
 90
      499
 91
      501
 93
      500
310
4290DBDB98D95C1D1D585B10940D028333333333333E3BF0000000000000FB0107902409070040501000000000000111010841D405064090740C02480A0340
1001
ACAD
1000
AcDbSavedByObjectVersion
1070
     0
  0
ACAD_PROXY_OBJECT
  5
35
102
{ACAD_REACTORS
330
2A
102
}
330
2A
100
AcDbProxyObject
 90
      499
 91
      501
 93
      412
310
40D11A5B50B409028333333333333E3BF0000000000000FB010790141107004050150841D405064090741402480A02677FFFFFD0
1001
ACAD
1000
AcDbSavedByObjectVersion
1070
     0
  0
ACAD_PROXY_OBJECT
  5
39
102
{ACAD_REACTORS
330
2A
102
}
330
2A
100
AcDbProxyObject
 90
      499
 91
      501
 93
      444
310
42D19858D95C185D1D195C9B90F409028333333333333E3BF0000000000000FB010790141107004050150841D405064090741402480A0350
1001
ACAD
1000
AcDbSavedByObjectVersion
1070
     0
  0
ACAD_PROXY_OBJECT
  5
2B
102
{ACAD_REACTORS
330
2A
102
}
330
2A
100
AcDbProxyObject
 90
      499
 91
      501
 93
      388
310
41119B185D240901404333333333333E3BF0000000000000F9010740A41107004050150841D405064090741402480A1B50
1001
ACAD
1000
AcDbSavedByObjectVersion
1070
     0
  0
ACAD_PROXY_OBJECT
  5
2C
102
{ACAD_REACTORS
330
2A
102
}
330
2A
100
AcDbProxyObject
 90
      499
 91
      501
 93
      476
310
43519B185D15DA5D1A115919D95CD0140901404333333333333E3BF0000000000000F9010740901411070040501600405405064090741402480A1B50
1001
ACAD
1000
AcDbSavedByObjectVersion
1070
     0
  0
ACAD_PROXY_OBJECT
  5
2D
102
{ACAD_REACTORS
330
2A
102
}
330
2A
100
AcDbProxyObject
 90
      499
 91
      501
 93
      412
310
41D1DBDD5C985D5910240902404333333333333E3BF0000000000000F9010740A411070040501641D405064090741402480A1B50
1001
ACAD
1000
AcDbSavedByObjectVersion
1070
     0
  0
ACAD_PROXY_OBJECT
  5
2E
102
{ACAD_REACTORS
330
2A
102
}
330
2A
100
AcDbProxyObject
 90
      499
 91
      501
 93
      500
310
4411DBDD5C985D5915DA5D1A115919D95CD0340902404333333333333E3BF0000000000000F9010740901411070040501600405405064090741402480A1B50
1001
ACAD
1000
AcDbSavedByObjectVersion
1070
     0
  0
ACAD_PROXY_OBJECT
  5
38
102
{ACAD_REACTORS
330
2A
102
}
330
2A
100
AcDbProxyObject
 90
      499
 91
      501
 93
      444
310
42D31A5B995C185D1D195C9B90E409028333333333333E3BF0000000000000FB010790141107004050750841D405064090741402483A0350
1001
ACAD
1000
AcDbSavedByObjectVersion
1070
     0
  0
ACAD_PROXY_OBJECT
  5
33
102
{ACAD_REACTORS
330
2A
102
}
330
2A
100
AcDbProxyObject
 90
      499
 91
      501
 93
      420
310
425499585B1A5CDD1A58D08409028333333333333E3BF0000000000000FB01079019070040501508421405064090741402480A1B40
1001
ACAD
1000
AcDbSavedByObjectVersion
1070
     0
  0
ACAD_PROXY_OBJECT
  5
37
102
{ACAD_REACTORS
330
2A
102
}
330
2A
100
AcDbProxyObject
 90
      499
 91
      501
 93
      412
310
41D51A1A58DAD95B90D409028333333333333E3BF0000000000000FB010790141107004050150C41D405064090741402480A0350
1001
ACAD
1000
AcDbSavedByObjectVersion
1070
     0
  0
XRECORD
  5
6A
102
{ACAD_REACTORS
330
61
102
}
330
61
100
AcDbXrecord
 90
        0
  0
XRECORD
  5
80
102
{ACAD_REACTORS
330
61
102
}
330
61
100
AcDbXrecord
1000
DSTYLE
1002
{
1070
   340
340
11
1002
}
  0
XRECORD
  5
6B
102
{ACAD_REACTORS
330
61
102
}
330
61
100
AcDbXrecord
  1
{6F9640C9-9150-FDF6-0430-EE29876CD602}
  0
XRECORD
  5
64
102
{ACAD_REACTORS
330
61
102
}
330
61
100
AcDbXrecord
  1

  0
XRECORD
  5
69
102
{ACAD_REACTORS
330
61
102
}
330
61
100
AcDbXrecord
 90
        1
  0
XRECORD
  5
66
102
{ACAD_REACTORS
330
61
102
}
330
61
100
AcDbXrecord
340
1A
  0
XRECORD
  5
68
102
{ACAD_REACTORS
330
61
102
}
330
61
100
AcDbXrecord
 90
    10269
  0
XRECORD
  5
67
102
{ACAD_REACTORS
330
61
102
}
330
61
100
AcDbXrecord
340
19
  0
XRECORD
  5
6D
102
{ACAD_REACTORS
330
61
102
}
330
61
100
AcDbXrecord
 40
0.0
  0
XRECORD
  5
70
102
{ACAD_REACTORS
330
61
102
}
330
61
100
AcDbXrecord
340
0
  0
XRECORD
  5
76
102
{ACAD_REACTORS
330
61
102
}
330
61
100
AcDbXrecord
 10
0.0
 20
0.0
 30
0.0
  0
XRECORD
  5
72
102
{ACAD_REACTORS
330
61
102
}
330
61
100
AcDbXrecord
 10
0.0
 20
0.0
 30
0.0
  0
XRECORD
  5
75
102
{ACAD_REACTORS
330
61
102
}
330
61
100
AcDbXrecord
 10
0.0
 20
0.0
 30
0.0
  0
XRECORD
  5
73
102
{ACAD_REACTORS
330
61
102
}
330
61
100
AcDbXrecord
 10
0.0
 20
0.0
 30
0.0
  0
XRECORD
  5
74
102
{ACAD_REACTORS
330
61
102
}
330
61
100
AcDbXrecord
 10
0.0
 20
0.0
 30
0.0
  0
XRECORD
  5
71
102
{ACAD_REACTORS
330
61
102
}
330
61
100
AcDbXrecord
 10
0.0
 20
0.0
 30
0.0
  0
XRECORD
  5
6E
102
{ACAD_REACTORS
330
61
102
}
330
61
100
AcDbXrecord
340
0
  0
XRECORD
  5
6F
102
{ACAD_REACTORS
330
61
102
}
330
61
100
AcDbXrecord
 70
     0
  0
XRECORD
  5
65
102
{ACAD_REACTORS
330
61
102
}
330
61
100
AcDbXrecord
  1

  0
XRECORD
  5
62
102
{ACAD_REACTORS
330
61
102
}
330
61
100
AcDbXrecord
 90
        1
  0
XRECORD
  5
63
102
{ACAD_REACTORS
330
61
102
}
330
61
100
AcDbXrecord
 90
       70
  0
XRECORD
  5
79
102
{ACAD_REACTORS
330
61
102
}
330
61
100
AcDbXrecord
340
0
  0
XRECORD
  5
7F
102
{ACAD_REACTORS
330
61
102
}
330
61
100
AcDbXrecord
 10
0.0
 20
0.0
 30
0.0
  0
XRECORD
  5
7B
102
{ACAD_REACTORS
330
61
102
}
330
61
100
AcDbXrecord
 10
0.0
 20
0.0
 30
0.0
  0
XRECORD
  5
7E
102
{ACAD_REACTORS
330
61
102
}
330
61
100
AcDbXrecord
 10
0.0
 20
0.0
 30
0.0
  0
XRECORD
  5
7C
102
{ACAD_REACTORS
330
61
102
}
330
61
100
AcDbXrecord
 10
0.0
 20
0.0
 30
0.0
  0
XRECORD
  5
7D
102
{ACAD_REACTORS
330
61
102
}
330
61
100
AcDbXrecord
 10
0.0
 20
0.0
 30
0.0
  0
XRECORD
  5
7A
102
{ACAD_REACTORS
330
61
102
}
330
61
100
AcDbXrecord
 10
0.0
 20
0.0
 30
0.0
  0
XRECORD
  5
77
102
{ACAD_REACTORS
330
61
102
}
330
61
100
AcDbXrecord
340
0
  0
XRECORD
  5
78
102
{ACAD_REACTORS
330
61
102
}
330
61
100
AcDbXrecord
 70
     0
  0
XRECORD
  5
6C
102
{ACAD_REACTORS
330
61
102
}
330
61
100
AcDbXrecord
  1
{FAEB1C32-E019-11D5-929B-00C0DF256EC4}
  0
DICTIONARYVAR
  5
84
102
{ACAD_REACTORS
330
81
102
}
330
81
100
DictionaryVariables
280
     0
  1
2
  0
DICTIONARYVAR
  5
85
102
{ACAD_REACTORS
330
81
102
}
330
81
100
DictionaryVariables
280
     0
  1
1
  0
DICTIONARY
  5
88
330
3D
100
AcDbDictionary
280
     1
  3
ACAD_XREC_ROUNDTRIP
360
89
  0
DICTIONARY
  5
86
330
3C
100
AcDbDictionary
280
     1
  3
ACAD_XREC_ROUNDTRIP
360
87
  0
DICTIONARY
  5
8A
330
3E
100
AcDbDictionary
280
     1
  3
ACAD_XREC_ROUNDTRIP
360
8B
  0
XRECORD
  5
89
102
{ACAD_REACTORS
330
88
102
}
330
88
100
AcDbXrecord
102
MATERIAL
148
0.0
149
0.0
149
0.0
 93
        0
 94
      127
282
     0
 72
     1
 77
     1
171
     1
175
     1
179
     1
273
     0
  0
XRECORD
  5
87
102
{ACAD_REACTORS
330
86
102
}
330
86
100
AcDbXrecord
102
MATERIAL
148
0.0
149
0.0
149
0.0
 93
        0
 94
      127
282
     0
 72
     1
 77
     1
171
     1
175
     1
179
     1
273
     0
  0
XRECORD
  5
8B
102
{ACAD_REACTORS
330
8A
102
}
330
8A
100
AcDbXrecord
102
MATERIAL
148
0.0
149
0.0
149
0.0
 93
        0
 94
      127
282
     0
 72
     1
 77
     1
171
     1
175
     1
179
     1
273
     0
  0
ENDSEC
  0
EOF
